<svg xmlns="http://www.w3.org/2000/svg" fill="none" viewBox="0 0 1280 372" class="absolute left-[50%] w-[1280px] min-w-full translate-x-[-50%] transform" astro-icon="backdrop/landscape/Footer"><path fill="#E4FBF2" d="M1280 25.41c-65.22-5.882-249.78-19.758-533.091-19.041 0 0-82.94-.665-119.757-.64 0 0-138.919-6.164-354.961-.614 0 0-78.492 3.645-272.191-5.115v100.899l1279.69 5.563.31-81.052Z" opacity=".6"/><path fill="#C2F1DE" d="M1280 39.733c-35.48-.281-143.4-1.381-305.45-4.949l-150.552-7.583s-119.278-6.996-241.122-4.643c-121.845 2.354-216.042 4.643-306.716 4.003-84.959-.588-107.918-.076-276.057-14.067v96.18H1279.79l.21-68.94Z"/><path fill="url(#astroicon:backdrop/landscape/Footera)" d="M913.406 48.655c-46.842 2.672-196.744 4.245-251.148 5.665-54.404 1.42-157.806 2.353-157.806 2.353C306.852 57.44 80.374 79.419.171 88v284H1280V59c-78.66-4.732-255.08-14.195-366.594-10.345Z"/><defs><linearGradient id="astroicon:backdrop/landscape/Footera" x1="324" x2="324" y1="-52.5" y2="372" gradientUnits="userSpaceOnUse"><stop stop-color="#69D3A7"/><stop offset=".448" stop-color="#A3E7CB"/></linearGradient></defs></svg>