<svg width="840" height="490" viewBox="0 0 840 490" fill="none" xmlns="http://www.w3.org/2000/svg" class="w-full"><rect x="0" y="-600" width="1200" height="1240" rx="6" fill="#E4FBF2"/><path d="M57.25 999.3C150.445 879.742 236.637 715.931 246.413 541.206C257.454 341.914 157.598 95.0484 41.6105 -56.3413C-101.523 -243.209 -263.804 -312.35 -458.36 -351.364C-458.36 -351.364 -541.754 -356.732 -554.139 -324.241C-574.907 -269.612 -568.99 -201.252 -552.612 -131.237C-545.902 -102.69 -537.459 -73.8512 -528.37 -45.5726C-525.944 -38.0206 -523.481 -30.5228 -520.979 -23.0792C-503.637 28.6471 -485.034 77.8537 -472.265 119.12C-431.98 249.218 -397.721 425.383 -325.874 539.111C-272.016 624.381 -235.935 717.609 -200.316 811.754C-181.599 861.218 -162.991 910.953 -142.008 959.891C-126.152 996.833 -102.499 1022.64 -75.9368 1036.18C-32.237 1058.59 19.5747 1047.71 57.25 999.3Z" fill="#F0FCF8"/><path d="M725.038 999.299C631.843 879.741 545.651 715.93 535.874 541.205C524.834 341.913 624.69 95.0474 740.677 -56.3423C883.811 -243.21 1046.09 -312.351 1240.65 -351.365C1240.65 -351.365 1324.04 -356.733 1336.43 -324.242C1357.19 -269.613 1351.28 -201.253 1334.9 -131.238C1328.19 -102.691 1319.75 -73.8522 1310.66 -45.5735C1308.23 -38.0216 1305.77 -30.5238 1303.27 -23.0802C1285.93 28.6462 1267.32 77.8527 1254.55 119.119C1214.27 249.217 1180.01 425.382 1108.16 539.11C1054.3 624.38 1018.22 717.608 982.604 811.753C963.887 861.217 945.279 910.952 924.296 959.89C908.44 996.832 884.787 1022.64 858.225 1036.18C814.525 1058.58 762.713 1047.71 725.038 999.299Z" fill="#C2F1DE"/><path d="M707.945 826.033C676.066 794.631 648.931 759.387 627.546 721.609C533.585 554.481 652.322 383.444 652.322 383.444C687.573 327.094 722.6 270.592 758.059 214.36C818.765 118.094 865.535 14.8684 962.644 -52.821C995.987 -76.0599 1037.46 -109.711 1082.27 -135.897C1079.69 -127.339 1077.04 -118.851 1074.32 -110.436C1055.51 -51.9483 1034.37 3.30118 1021.01 50.1584C978.829 197.877 952.95 401.649 859.684 524.016C789.756 615.808 748.353 720.298 707.945 826.033Z" fill="#69D3A7"/><path d="M1202.53 200.158C1202.53 200.158 1171.87 344.417 1120.15 437.266C1068.44 530.115 1018.92 625.991 960.291 664.913C901.657 703.835 802.989 672.589 755.612 584.564C708.235 496.538 760.645 372.116 760.645 372.116C776.116 331.751 791.489 291.346 807.017 251.029C833.632 181.979 853.583 110.899 897.86 53.7106C926.349 16.8578 967.487 -46.9248 1008.73 -60.3669C1048.43 -73.2961 1138.48 -26.6237 1166.57 34.1535C1194.67 94.9307 1213.06 119.637 1202.52 200.178L1202.53 200.158Z" fill="#003131"/></svg>